<svg width="24" height="24" viewBox="0 0 24 24" fill="none" xmlns="http://www.w3.org/2000/svg">
<path d="M12.1294 2C10.3951 1.99963 8.68974 2.44477 7.17684 3.29275C5.66394 4.14073 4.39422 5.36311 3.4894 6.84272C2.58458 8.32233 2.075 10.0096 2.00951 11.7427C1.94402 13.4758 2.32481 15.1966 3.11538 16.7403L2.09819 19.7806C1.98665 20.1116 1.96977 20.4672 2.04945 20.8072C2.12913 21.1473 2.30221 21.4583 2.54917 21.7053C2.79614 21.9522 3.10718 22.1253 3.44724 22.205C3.78729 22.2847 4.14284 22.2678 4.47382 22.1563L7.51413 21.1428C8.87729 21.8387 10.3805 22.2166 11.9107 22.2479C13.4409 22.2792 14.9583 21.9632 16.3488 21.3237C17.7393 20.6841 18.9667 19.7376 19.9387 18.5554C20.9107 17.3732 21.6021 15.986 21.9608 14.4981C22.3196 13.0102 22.3363 11.4604 22.0098 9.96509C21.6833 8.4698 21.0221 7.06798 20.0758 5.86504C19.1295 4.6621 17.9229 3.68934 16.5465 3.0199C15.1702 2.35045 13.66 2.00175 12.1294 2ZM12.1294 20C10.745 20.0005 9.38498 19.6361 8.18632 18.9434C8.01541 18.8443 7.8214 18.7919 7.62382 18.7916C7.50273 18.7918 7.38245 18.8114 7.26757 18.8497L4.47476 19.7806L5.40569 16.9878C5.4561 16.8366 5.47381 16.6764 5.45765 16.5179C5.44149 16.3593 5.39182 16.206 5.31194 16.0681C4.4438 14.5673 4.09522 12.822 4.32026 11.1028C4.54531 9.38371 5.3314 7.78689 6.55659 6.56012C7.78178 5.33335 9.37758 4.5452 11.0964 4.31794C12.8153 4.09068 14.5611 4.43702 16.063 5.30323C17.5649 6.16943 18.739 7.50708 19.4031 9.10866C20.0672 10.7102 20.1842 12.4862 19.7359 14.1611C19.2876 15.8359 18.2992 17.316 16.9238 18.3717C15.5485 19.4275 13.8632 19.9998 12.1294 20Z" fill="black"/>
</svg>
