<svg width="24" height="24" viewBox="0 0 24 24" fill="none" xmlns="http://www.w3.org/2000/svg">
<path d="M4.5 19.7143H8.25V14C8.25 13.6762 8.37 13.4049 8.61 13.1863C8.85 12.9676 9.14667 12.8579 9.5 12.8571H14.5C14.8542 12.8571 15.1512 12.9669 15.3912 13.1863C15.6312 13.4057 15.7508 13.6769 15.75 14V19.7143H19.5V9.42857L12 4.28571L4.5 9.42857V19.7143ZM2 19.7143V9.42857C2 9.06666 2.08875 8.72381 2.26625 8.4C2.44375 8.07619 2.68833 7.80952 3 7.6L10.5 2.45714C10.9375 2.15238 11.4375 2 12 2C12.5625 2 13.0625 2.15238 13.5 2.45714L21 7.6C21.3125 7.80952 21.5575 8.07619 21.735 8.4C21.9125 8.72381 22.0008 9.06666 22 9.42857V19.7143C22 20.3429 21.755 20.8811 21.265 21.3291C20.775 21.7771 20.1867 22.0008 19.5 22H14.5C14.1458 22 13.8492 21.8903 13.61 21.6709C13.3708 21.4514 13.2508 21.1802 13.25 20.8571V15.1429H10.75V20.8571C10.75 21.1809 10.63 21.4526 10.39 21.672C10.15 21.8914 9.85333 22.0008 9.5 22H4.5C3.8125 22 3.22417 21.7764 2.735 21.3291C2.24583 20.8819 2.00083 20.3436 2 19.7143Z" fill="#456E4F"/>
</svg>
