<svg width="24" height="24" viewBox="0 0 24 24" fill="none" xmlns="http://www.w3.org/2000/svg">
<path d="M22.9669 3.16474C22.9517 2.8715 22.8432 2.59482 22.6619 2.38711C22.4805 2.17939 22.239 2.05508 21.983 2.03773C17.3322 1.72472 13.5841 3.37374 11.9567 6.45179C10.8968 8.45181 10.8602 10.8688 11.8293 13.1819C11.3576 13.8711 10.9947 14.6495 10.7572 15.4819L9.65187 14.2159C10.2796 12.5389 10.2132 10.8048 9.44233 9.34683C8.22179 7.03579 5.44197 5.79978 2.00735 6.02678C1.7512 6.04416 1.50953 6.16861 1.32816 6.37653C1.1468 6.58445 1.03836 6.86138 1.02341 7.1548C0.824357 11.0889 1.90346 14.2729 3.91935 15.6709C4.60306 16.1482 5.38862 16.3998 6.18931 16.3979C6.87196 16.3916 7.54632 16.2259 8.17116 15.9109L10.428 18.5V20.8C10.428 21.1182 10.5384 21.4235 10.7349 21.6485C10.9313 21.8736 11.1978 22 11.4757 22C11.7535 22 12.02 21.8736 12.2165 21.6485C12.413 21.4235 12.5234 21.1182 12.5234 20.8V17.8509C12.5212 16.7783 12.8108 15.7314 13.3519 14.8559C14.2284 15.3315 15.1846 15.5836 16.1544 15.5949C17.1979 15.5977 18.2218 15.2703 19.1132 14.6489C21.7996 12.7849 23.241 8.49181 22.9669 3.16474ZM5.00457 13.6179C3.853 12.8179 3.15543 10.8718 3.09868 8.40481C5.25252 8.46981 6.95236 9.26882 7.64994 10.5878C7.92273 11.0961 8.03463 11.6963 7.96686 12.2879L6.97768 11.1508C6.78087 10.9254 6.51392 10.7988 6.23558 10.7988C5.95724 10.7988 5.6903 10.9254 5.49348 11.1508C5.29666 11.3763 5.18609 11.682 5.18609 12.0009C5.18609 12.3197 5.29666 12.6254 5.49348 12.8509L6.48353 13.9849C5.96849 14.0577 5.44711 13.9283 5.00457 13.6179ZM18.028 12.5999C17.0973 13.2449 16.02 13.3669 14.9016 12.9759L18.1537 9.25182C18.3505 9.02639 18.4611 8.72063 18.4611 8.40181C18.4611 8.083 18.3505 7.77724 18.1537 7.5518C17.9569 7.32636 17.69 7.19971 17.4116 7.19971C17.1333 7.19971 16.8663 7.32636 16.6695 7.5518L13.4174 11.2759C13.0795 9.99983 13.186 8.76082 13.7456 7.6998C14.8544 5.59977 17.4692 4.39976 20.8454 4.39976H20.9047C20.917 8.29981 19.8693 11.3179 18.028 12.5999Z" fill="black"/>
</svg>
