<svg width="24" height="24" viewBox="0 0 24 24" fill="none" xmlns="http://www.w3.org/2000/svg">
<path d="M5.33555 7.71291C5.33586 6.93144 5.52311 6.15832 5.88571 5.44134C6.24832 4.72437 6.77858 4.07878 7.44373 3.54447C8.10888 3.01016 8.89477 2.59848 9.75284 2.3349C10.6109 2.07131 11.5229 1.96141 12.4325 2.01198C13.342 2.06256 14.2298 2.27253 15.041 2.62894C15.8522 2.98534 16.5695 3.4806 17.1486 4.08409C17.7276 4.68758 18.1562 5.38649 18.4078 6.13761C18.6593 6.88874 18.7285 7.67611 18.6111 8.45108C19.8937 9.07185 20.9004 10.0394 21.474 11.2025C22.0475 12.3657 22.1555 13.659 21.7811 14.8803C21.4067 16.1017 20.571 17.1823 19.4046 17.9534C18.2382 18.7245 16.8068 19.1427 15.3339 19.1426H13.112V22H10.8902V19.1426H8.11286C6.72002 19.1431 5.36877 18.7356 4.28299 17.9877C3.19722 17.2397 2.44211 16.1961 2.14278 15.0298C1.84344 13.8635 2.01785 12.6446 2.63711 11.5749C3.25636 10.5052 4.28329 9.64908 5.54774 9.14829C5.40637 8.67947 5.33507 8.19714 5.33555 7.71291ZM6.45759 10.8865C5.65922 11.2102 5.01302 11.757 4.6252 12.4372C4.23738 13.1175 4.13102 13.8906 4.3236 14.6295C4.51618 15.3684 4.99625 16.0292 5.68489 16.5032C6.37353 16.9771 7.22977 17.2362 8.11286 17.2376H15.3339C16.3707 17.2386 17.3752 16.9286 18.1736 16.3615C18.9719 15.7944 19.5139 15.0058 19.7056 14.1322C19.8973 13.2586 19.7267 12.3551 19.2233 11.578C18.7199 10.8009 17.9154 10.1991 16.9492 9.87693L16.0149 9.56452C16.2115 8.95494 16.4448 8.35297 16.4448 7.71291C16.4448 7.06349 16.2512 6.42485 15.8823 5.85763C15.5135 5.29041 14.9816 4.81345 14.3373 4.47202C13.693 4.1306 12.9575 3.93606 12.2008 3.90687C11.4441 3.87768 10.6913 4.01481 10.0138 4.30524C9.33633 4.59567 8.75667 5.02976 8.32989 5.56629C7.90311 6.10281 7.64338 6.72396 7.57536 7.37076C7.50733 8.01756 7.63328 8.66853 7.94123 9.26186C8.24918 9.85518 8.72891 10.3712 9.33488 10.7608L8.00177 12.2848C7.39851 11.8969 6.87637 11.4242 6.45759 10.8865Z" fill="black"/>
</svg>
